<?xml version="1.0" standalone="no"?>
<!DOCTYPE svg PUBLIC "-//W3C//DTD SVG 20010904//EN"
 "http://www.w3.org/TR/2001/REC-SVG-20010904/DTD/svg10.dtd">
<svg version="1.0" xmlns="http://www.w3.org/2000/svg"
 width="700.000000pt" height="700.000000pt" viewBox="0 0 700.000000 700.000000"
 preserveAspectRatio="xMidYMid meet">
<metadata>
Created by potrace 1.14, written by Peter Selinger 2001-2017
</metadata>
<g transform="translate(0.000000,700.000000) scale(0.100000,-0.100000)"
fill="#000000" stroke="none">
<path d="M3434 5720 c-11 -4 -33 -22 -47 -40 -81 -96 -84 -246 -18 -1040 27
-333 52 -613 56 -622 18 -45 81 -27 90 25 3 17 28 318 56 667 51 641 54 719
27 843 -15 75 -53 144 -88 162 -32 17 -45 18 -76 5z"/>
<path d="M2045 5058 c-79 -62 -63 -163 45 -281 28 -31 215 -187 416 -347 313
-251 368 -291 389 -286 30 8 44 50 26 79 -39 62 -577 720 -623 763 -100 90
-195 118 -253 72z"/>
<path d="M4660 5064 c-86 -37 -141 -96 -441 -470 -166 -207 -304 -385 -307
-396 -6 -23 24 -58 49 -58 22 0 698 539 780 621 63 63 109 146 109 196 0 98
-92 150 -190 107z"/>
<path d="M1590 3729 c-164 -14 -264 -68 -264 -143 0 -76 91 -128 260 -147 100
-11 129 -9 1103 70 304 25 346 30 357 46 17 23 18 36 1 59 -11 15 -86 23 -617
66 -708 56 -741 58 -840 49z"/>
<path d="M5170 3732 c-35 -2 -334 -25 -664 -51 -568 -46 -601 -50 -617 -70
-25 -31 -13 -59 30 -71 55 -15 1189 -103 1326 -103 134 0 217 14 287 49 46 23
78 64 78 99 0 98 -184 160 -440 147z"/>
<path d="M3436 3161 c-15 -16 -25 -112 -67 -633 -68 -827 -64 -955 31 -1050
42 -43 70 -47 116 -19 53 32 88 131 99 279 5 64 -7 257 -44 722 -28 349 -53
650 -56 667 -5 30 -29 53 -53 53 -5 0 -17 -9 -26 -19z"/>
<path d="M2488 2861 c-398 -318 -452 -370 -483 -468 -15 -47 -15 -59 -4 -90
40 -104 156 -102 287 4 65 53 642 777 642 806 0 29 -18 47 -46 47 -14 0 -161
-111 -396 -299z"/>
<path d="M3926 3144 c-9 -8 -16 -22 -16 -31 0 -22 570 -732 637 -793 73 -67
126 -93 187 -94 43 0 52 4 82 37 27 29 34 45 34 77 0 55 -33 121 -94 188 -72
79 -765 632 -793 632 -12 0 -29 -7 -37 -16z"/>
</g>
</svg>
